<svg id="AOK_Logo_Horiz" data-name="AOK Logo Horiz" xmlns="http://www.w3.org/2000/svg" width="3538.93652" height="1757.04432" viewBox="0 0 3538.93652 1757.04432"><defs><style>.cls-1{fill:none;}.cls-2{fill:#005e3f;}</style></defs><g id="H_M_pos"><g id="Bounding_box" data-name="Bounding box"><rect class="cls-1" width="3538.93652" height="1757.04432"/></g><path class="cls-2" d="M2856.06069,585.11609a114.415,114.415,0,0,0,138.55569,18.80749c50.49222-29.15082,55.079-76.175,82.85962-179.8537-67.15452-17.99363-109.0441-32.563-143.98427-32.56054-18.79656.00121-35.58762,4.21993-53.20469,14.39077-47.51008,27.43078-65.9896,81.90971-52.41269,130.09518L2759.895,575.24285V411.455c48.84627-12.0986,87.04311-55.75074,87.04311-110.86739,0-58.15467-38.73184-86.07918-114.33837-161.68571-75.89807,75.89928-114.32031,103.38285-114.32031,161.68571,0,52.17825,35.91316,98.41652,86.84632,110.90869V575.221l-67.9453-39.23056c13.56841-48.183-4.9111-102.65346-52.41633-130.0806-17.61707-10.17084-34.40813-14.39078-53.20469-14.39078-34.94017,0-76.82975,14.56691-143.98427,32.56054,27.78062,103.67869,32.36862,150.70289,82.85962,179.85371a114.41674,114.41674,0,0,0,138.55326-18.80385l96.13771,55.50779v80.27835l-235.1307-.00851v54.76925l525.03065.01943V720.92652L2759.895,720.918V640.63482Zm23.7769-95.23882a58.7272,58.7272,0,0,1,27.83772-36.54c8.78849-5.07388,16.02943-7.05144,25.82735-7.05144,17.84543,0,43.14681,6.64816,77.41525,16.21042-17.102,66.22891-23.54733,82.36159-43.68858,93.99009a59.60531,59.60531,0,0,1-29.77641,7.926,58.92127,58.92127,0,0,1-51.57574-29.72417A60.4163,60.4163,0,0,1,2879.83759,489.87727ZM2579.174,534.698a58.91964,58.91964,0,0,1-51.57453,29.72295,59.61334,59.61334,0,0,1-29.7764-7.92482c-20.14247-11.62972-26.58656-27.76119-43.68858-93.99009,34.27329-9.56227,59.57588-16.21042,77.425-16.21042,9.78821,0,17.02672,1.97756,25.81642,7.05266A59.62,59.62,0,0,1,2579.174,534.698Zm93.882-234.11034c0-23.257,10.75026-36.908,59.54673-84.825,48.79769,47.95224,59.55889,61.65184,59.55889,84.825a59.55281,59.55281,0,1,1-119.10562,0ZM2732.60425,55.1518c245.29092,0,444.84919,199.55744,444.84919,444.84683,0,245.29077-199.55827,444.84964-444.84919,444.84964S2287.75507,745.2894,2287.75507,499.99863c0-245.28939,199.55827-444.84683,444.84918-444.84683m0-55.1518c-276.13384,0-500.00106,223.89432-500.00106,499.99863,0,276.13415,223.86722,500.00137,500.00106,500.00137,276.10682,0,500.00107-223.86722,500.00107-500.00137C3232.60532,223.89432,3008.71107,0,2732.60425,0Zm-1652.024,126.86782c-206.05762,0-373.11426,167.07608-373.11426,373.11305,0,206.05762,167.05664,373.11426,373.11426,373.11426,206.03819,0,373.11427-167.05664,373.11427-373.11426C1453.69448,293.9439,1286.6184,126.86782,1080.58021,126.86782Zm.00365,623.95978c-137.10046,0-248.22537-112.34813-248.22537-250.84309,0-138.49253,111.12491-250.79329,248.22537-250.79329,137.08224,0,248.25695,112.30076,248.25695,250.79329C1328.84081,638.47947,1217.6661,750.8276,1080.58386,750.8276Zm1041.71982,98.12013H1957.07155L1732.25016,552.09838l-98.278,109.76564.1652,187.08614H1513.05779V150.97392h120.46488l.29153,331.09956,296.73274-331.09956h160.84457L1818.52678,455.736ZM458.21778,150.97392.13758,848.95745h145.765L244.02033,698.766H532.66669V848.95745H653.07205V150.97392Zm-142.84,438.5621L532.595,257.03466l.07167,332.50136Z"/><path class="cls-2" d="M135.99609,1361.76014H55.42725L37.999,1407.473H0l78.855-199.99414h33.71289l78.855,199.99414h-37.999Zm-12.28564-33.1416-27.999-74.2832-27.999,74.2832Z"/><path class="cls-2" d="M405.69727,1307.476c0,59.71289-43.42774,104.56836-101.99707,104.56836-58.57032,0-101.99708-44.85547-101.99708-104.56836,0-59.71191,43.42676-104.56836,101.99708-104.56836C362.26953,1202.9076,405.69727,1247.76405,405.69727,1307.476ZM303.7002,1378.33143c38.57031,0,65.998-29.999,65.998-70.85547,0-40.85547-27.42773-70.85449-65.998-70.85449-38.28516,0-65.99805,29.999-65.99805,70.85449C237.70215,1348.33241,265.415,1378.33143,303.7002,1378.33143Z"/><path class="cls-2" d="M477.11816,1207.47889v94.56836l87.13965-94.56836h47.999l-82.8545,86.56934,82.28321,113.4248H566.544l-63.14161-86.85449-26.28418,28.28516V1407.473H441.69043V1207.47889Z"/><path class="cls-2" d="M845.668,1257.19178c0,19.71387-10.85645,39.1416-33.42676,45.999,28.57031,5.71386,41.42676,25.1416,41.42676,46.28418,0,29.1416-24.57031,57.998-66.2832,57.998H708.24414V1207.47889h81.42578C826.52637,1207.47889,845.668,1231.76405,845.668,1257.19178Zm-66.2832,35.999c19.42773,0,30.57031-12.28516,30.57031-28.57032,0-14.28515-9.42774-24.57129-28.28516-24.57129H743.38574v53.14161Zm6,81.71191c20.57031,0,32.57031-12,32.57031-27.42773,0-14.85645-11.14258-26.85645-31.71387-26.85645H743.38574v54.28418Z"/><path class="cls-2" d="M1044.51465,1378.0453a20.6971,20.6971,0,0,0,11.14258-3.14258l7.999,25.42773a50.5189,50.5189,0,0,1-27.999,8.85645c-17.42774,0-32.85547-9.999-35.71289-28.28418-10,18.28516-28.85645,28.28418-53.14161,28.28418-43.1416,0-68.56933-33.71289-68.56933-74.85449,0-40.85547,24.57129-75.42676,68.85547-75.42676,23.42773,0,40.57031,9.42871,48.57031,25.14258v-21.71387h33.71289v99.71191C1029.37207,1373.474,1036.51465,1378.0453,1044.51465,1378.0453Zm-91.14063.57129c24.57129,0,41.42774-17.999,41.42774-44.57032,0-26.28418-16.85645-44.56933-41.71289-44.56933-25.999,0-40.28516,19.999-40.28516,44.56933C912.80371,1360.33143,929.08887,1378.61659,953.374,1378.61659Z"/><path class="cls-2" d="M1193.36133,1407.473v-22.57031c-8.85645,15.1416-27.42774,24.28418-49.71289,24.28418-43.998,0-68.56934-34.28418-68.56934-74.85449s24.57129-75.42676,68.85547-75.42676c22.28516,0,39.71289,9.14258,47.71289,23.42871v-74.85547h34.57031V1407.473Zm-43.42676-28.85644c24.85645,0,41.71289-18.28516,41.71289-44.57032,0-26.28418-16.85644-44.56933-41.71289-44.56933-25.71387,0-40.28516,19.999-40.28516,44.56933C1109.64941,1360.33143,1125.93457,1378.61659,1149.93457,1378.61659Z"/><path class="cls-2" d="M1291.35352,1345.76112c4,22.28418,18.57128,33.42676,41.1416,33.42676,17.999,0,30.85644-7.71387,39.71289-18.85645l18.28515,20.85645c-15.42773,18-35.1416,27.999-60.85546,27.999-44.56934,0-73.14063-29.999-73.14063-73.42578,0-42.85645,27.71387-76.85547,73.71289-76.85547,39.42676,0,64.2832,24.85644,64.2832,71.99805v14.85742Zm68.85546-25.42871c-.28613-20.28418-10.28613-32.57032-31.71386-32.57032-21.14258,0-33.999,12-37.42774,32.57032Z"/><path class="cls-2" d="M1458.48535,1262.33436v22c8.85645-14.57129,22.85645-25.42871,46.85547-25.42871,30.28516,0,51.71289,18.28516,51.71289,53.1416V1407.473H1522.4834v-87.71191c0-19.71289-10.85742-30.28418-28-30.28418-19.1416,0-35.1416,13.999-35.1416,40.28418V1407.473h-34.57032V1262.33436Z"/><path class="cls-2" d="M1679.33105,1305.76209v30.85645h-88.28222v-30.85645Z"/><path class="cls-2" d="M1972.17676,1207.47889,1908.46387,1407.473h-33.999L1830.752,1270.90565,1787.3252,1407.473H1753.04l-63.71192-199.99414h37.7129l43.42773,143.71,43.1416-143.71h34.28418l43.1416,143.71,43.42774-143.71Z"/><path class="cls-2" d="M2117.88086,1407.473H2084.168v-23.71386c-8.85742,14.57128-21.999,25.42773-45.1416,25.42773-29.1416,0-51.99805-17.1416-51.99805-54.56934v-92.2832h34.57031V1347.475c0,20.85644,10.28516,30.85644,26.85645,30.85644,20.28418,0,34.85547-15.14258,34.85547-39.999v-75.998h34.57031Zm-95.99707-213.42187c12.57129,0,21.71387,9.14258,21.71387,20.85644s-9.14258,20.85645-21.71387,20.85645c-12.57031,0-21.71289-9.14258-21.71289-20.85645S2009.31348,1194.05116,2021.88379,1194.05116Zm60.85547,0c12.57129,0,21.71386,9.14258,21.71386,20.85644s-9.14257,20.85645-21.71386,20.85645-21.71387-9.14258-21.71387-20.85645S2070.168,1194.05116,2082.73926,1194.05116Z"/><path class="cls-2" d="M2190.44727,1262.33436v22.85645c6.57128-17.14258,21.71289-24.85645,39.1416-24.85645a72.67487,72.67487,0,0,1,19.999,3.14356l-5.42871,32.28417a51.13631,51.13631,0,0,0-17.71289-3.42871c-20.28516,0-35.14258,13.14258-35.14258,39.14161v75.998H2156.7334V1262.33436Z"/><path class="cls-2" d="M2291.00879,1262.33436v-37.1416h34.57031v37.1416h43.1416v30.85645h-43.1416v61.14062c0,16.28516,10.57129,23.71387,23.71387,23.71387a44.71959,44.71959,0,0,0,22.57129-6.85645l9.14258,25.1416c-13.14258,8.57129-27.14258,12.85645-40.85645,12.85645-27.999,0-49.1416-17.71289-49.1416-49.14063v-66.85546H2261.581v-30.85645Z"/><path class="cls-2" d="M2417.57227,1262.33436v-37.1416h34.57128v37.1416h43.14063v30.85645h-43.14063v61.14062c0,16.28516,10.57032,23.71387,23.7129,23.71387a44.71956,44.71956,0,0,0,22.57128-6.85645l9.14258,25.1416c-13.14258,8.57129-27.14258,12.85645-40.85644,12.85645-27.999,0-49.1416-17.71289-49.1416-49.14063v-66.85546h-29.42676v-30.85645Z"/><path class="cls-2" d="M2554.13867,1345.76112c4,22.28418,18.57129,33.42676,41.1416,33.42676,17.999,0,30.85645-7.71387,39.71289-18.85645l18.28516,20.85645c-15.42773,18-35.1416,27.999-60.85547,27.999-44.56933,0-73.14062-29.999-73.14062-73.42578,0-42.85645,27.71386-76.85547,73.71289-76.85547,39.42676,0,64.2832,24.85644,64.2832,71.99805v14.85742Zm68.85547-25.42871c-.28613-20.28418-10.28613-32.57032-31.71387-32.57032-21.14257,0-33.999,12-37.42773,32.57032Z"/><path class="cls-2" d="M2721.27051,1262.33436v21.71387c7.999-15.71387,21.71289-25.14258,41.998-25.14258,21.14258,0,36.57032,9.71484,43.42774,28.28516,8.57129-17.999,24.57031-28.28516,46.28418-28.28516,30.85644,0,48.28418,19.42871,48.28418,54.57031V1407.473h-34.28516V1319.476c0-18.28515-7.42773-29.999-25.1416-29.999-16.85644,0-30.28516,11.71387-30.28516,38.57031V1407.473h-34.28418V1319.476c0-18.28515-7.42871-29.999-25.14257-29.999-16.85645,0-29.999,11.71387-29.999,38.57031V1407.473h-34.57031V1262.33436Z"/><path class="cls-2" d="M3090.96484,1334.33241c0,40.57031-24.85644,74.85449-68.56933,74.85449-22.57031,0-40.85547-9.42773-49.71289-24.28418V1407.473H2940.1123V1207.47889h34.57032v75.42676c8-14.57129,25.42773-24,47.71289-24C3066.67969,1258.90565,3090.96484,1293.76209,3090.96484,1334.33241Zm-74.85449,44.28418c24.28516,0,40.57031-18.28516,40.57031-44.57032,0-24.57031-14.57128-44.56933-40.57031-44.56933-24.85644,0-41.71289,18.28515-41.71289,44.56933C2974.39746,1360.33143,2991.25391,1378.61659,3016.11035,1378.61659Z"/><path class="cls-2" d="M3147.52734,1345.76112c4,22.28418,18.57129,33.42676,41.14161,33.42676,17.999,0,30.85644-7.71387,39.71289-18.85645l18.28515,20.85645c-15.42773,18-35.1416,27.999-60.85547,27.999-44.56933,0-73.14062-29.999-73.14062-73.42578,0-42.85645,27.71387-76.85547,73.71289-76.85547,39.42676,0,64.2832,24.85644,64.2832,71.99805v14.85742Zm68.85547-25.42871c-.28613-20.28418-10.28613-32.57032-31.71386-32.57032-21.14258,0-33.999,12-37.42774,32.57032Z"/><path class="cls-2" d="M3314.65918,1262.33436v22.85645c6.57129-17.14258,21.71289-24.85645,39.1416-24.85645a72.67481,72.67481,0,0,1,19.999,3.14356l-5.42871,32.28417a51.13722,51.13722,0,0,0-17.71386-3.42871c-20.28418,0-35.14161,13.14258-35.14161,39.14161v75.998h-34.57031V1262.33436Z"/><path class="cls-2" d="M3538.93652,1262.33436v138.28223c0,45.42675-33.42773,73.99707-77.99707,73.99707-35.71386,0-64.57031-18.57032-75.71191-47.42676l30.28418-14.85645c7.14258,19.42774,25.42773,31.14161,46.57031,31.14161,25.42774,0,42.57031-14.85645,42.57031-39.42774V1381.474c-8.85742,15.14258-25.42773,22.85644-48.28418,22.85644-41.999,0-70.28418-29.42773-70.28418-72.56933,0-40.57031,25.999-72.85547,70.28418-72.85547,23.71289,0,41.71289,8.57129,49.14063,23.42871v-20Zm-76.2832,111.71094c24.85645,0,41.999-16.28516,41.999-42.57031,0-25.999-17.14257-41.998-42.28515-41.998-24.28418,0-41.71289,15.999-41.71289,41.998C3420.6543,1356.04627,3436.6543,1374.0453,3462.65332,1374.0453Z"/><path class="cls-2" d="M17.14258,1552.47889H85.14014c67.7124,0,101.42529,48.85547,101.42529,98.2832,0,50.56934-35.1416,101.71094-104.85352,101.71094H17.14258ZM84.2832,1718.76014c44.57032,0,66.56934-33.14258,66.56934-66.85547,0-33.1416-22.28467-65.71191-65.7124-65.71191H52.56982v132.56738Z"/><path class="cls-2" d="M262.55762,1563.33631c0,12.57032-9.42871,22.28418-23.14258,22.28418s-23.42774-9.71386-23.42774-22.28418c0-12.85742,9.71387-22.57129,23.42774-22.57129S262.55762,1550.47889,262.55762,1563.33631Zm-40.57032,43.99805h34.57032V1752.473H221.9873Z"/><path class="cls-2" d="M323.98145,1690.76112c4,22.28418,18.57128,33.42676,41.1416,33.42676,17.999,0,30.85644-7.71387,39.71289-18.85645l18.28515,20.85645c-15.42773,18-35.1416,27.999-60.85547,27.999-44.56933,0-73.14062-29.999-73.14062-73.42578,0-42.85645,27.71387-76.85547,73.71191-76.85547,39.42774,0,64.28418,24.85644,64.28418,71.99805v14.85742Zm68.85546-25.42871c-.28613-20.28418-10.28613-32.57032-31.71386-32.57032-21.1416,0-33.999,12-37.42774,32.57032Z"/><path class="cls-2" d="M603.39648,1647.04725h86.28321v78.85547c-20,18.28516-45.42774,31.1416-78.85547,31.1416-65.71192,0-99.71094-47.1416-99.71094-102.28223,0-60.28417,40.85547-106.85449,103.13965-106.85449,35.42773,0,62.85547,15.14258,80.85449,43.71289l-27.999,20.57129c-11.71387-19.71386-31.999-30.57031-55.14063-30.57031-36.57031,0-64.85547,26.57031-64.85547,71.99707,0,47.999,31.42774,71.71289,66.85547,71.71289A73.915,73.915,0,0,0,654.252,1713.0453v-33.999H603.39648Z"/><path class="cls-2" d="M755.957,1690.76112c4,22.28418,18.57129,33.42676,41.1416,33.42676,17.999,0,30.85645-7.71387,39.71289-18.85645l18.28516,20.85645c-15.42773,18-35.1416,27.999-60.85547,27.999-44.56933,0-73.14062-29.999-73.14062-73.42578,0-42.85645,27.71386-76.85547,73.71289-76.85547,39.42675,0,64.2832,24.85644,64.2832,71.99805v14.85742Zm68.85547-25.42871c-.28613-20.28418-10.28613-32.57032-31.71387-32.57032-21.14258,0-33.999,12-37.42773,32.57032Z"/><path class="cls-2" d="M942.23047,1633.04823c-12.57031,0-20.85645,5.42871-20.85645,14.85644,0,10.57129,10.28516,13.14258,29.999,16.85645,23.14257,4.57129,52.28418,10.28613,52.28418,41.71289,0,29.71387-25.71289,47.71289-59.14063,47.71289-24.28515,0-48.85547-9.71387-65.14062-27.42773l19.1416-23.999c12.28515,14.85645,33.1416,21.42774,49.1416,21.42774,12.57129,0,21.71387-4.57129,21.71387-13.71387,0-9.71387-9.14258-12.85645-26.85645-16.28516-23.42773-4.57129-55.1416-10.57129-55.1416-44.57031,0-30.85547,25.71387-45.71289,54.57031-45.71289,19.71387,0,39.999,6.85742,53.71192,20.57129l-17.999,22.57031C967.94434,1637.33338,953.37305,1633.04823,942.23047,1633.04823Z"/><path class="cls-2" d="M1160.50488,1752.473H1126.792v-23.71386c-8.85742,14.57128-21.999,25.42773-45.1416,25.42773-29.1416,0-51.998-17.1416-51.998-54.56934v-92.2832h34.57032V1692.475c0,20.85644,10.28515,30.85644,26.85644,30.85644,20.28516,0,34.85547-15.14258,34.85547-39.999v-75.998h34.57031Z"/><path class="cls-2" d="M1233.07129,1607.33436v22c8.85644-14.57129,22.85644-25.42871,46.85547-25.42871,30.28515,0,51.71289,18.28516,51.71289,53.1416V1752.473h-34.57031v-87.71191c0-19.71289-10.85743-30.28418-28-30.28418-19.14161,0-35.14161,13.999-35.14161,40.28418V1752.473h-34.57031V1607.33436Z"/><path class="cls-2" d="M1480.20215,1752.473v-22.57031c-8.85645,15.1416-27.42774,24.28418-49.71289,24.28418-43.99805,0-68.56934-34.28418-68.56934-74.85449s24.57129-75.42676,68.85547-75.42676c22.28516,0,39.71289,9.14258,47.71289,23.42871v-74.85547h34.57031V1752.473Zm-43.42676-28.85644c24.85645,0,41.71289-18.28516,41.71289-44.57032,0-26.28418-16.85644-44.56933-41.71289-44.56933-25.71387,0-40.28516,19.999-40.28516,44.56933C1396.49023,1705.33143,1412.77637,1723.61659,1436.77539,1723.61659Z"/><path class="cls-2" d="M1586.47949,1552.47889v75.998c8.57129-14.28516,22.57129-24.57129,45.999-24.57129,30.28418,0,51.71289,18.28516,51.71289,53.1416V1752.473h-34.57032v-87.71191c0-19.71289-10.85742-30.28418-27.999-30.28418-19.14258,0-35.14258,13.71387-35.14258,39.998v77.998h-34.57031V1552.47889Z"/><path class="cls-2" d="M1749.32812,1690.76112c4,22.28418,18.57129,33.42676,41.14161,33.42676,17.999,0,30.85644-7.71387,39.71289-18.85645l18.28515,20.85645c-15.42773,18-35.1416,27.999-60.85547,27.999-44.56933,0-73.14062-29.999-73.14062-73.42578,0-42.85645,27.71387-76.85547,73.71289-76.85547,39.42676,0,64.2832,24.85644,64.2832,71.99805v14.85742Zm68.85547-25.42871c-.28613-20.28418-10.28613-32.57032-31.71386-32.57032-21.14258,0-33.999,12-37.42774,32.57032Z"/><path class="cls-2" d="M1925.60254,1563.33631c0,12.57032-9.42871,22.28418-23.14258,22.28418s-23.42773-9.71386-23.42773-22.28418c0-12.85742,9.71386-22.57129,23.42773-22.57129S1925.60254,1550.47889,1925.60254,1563.33631Zm-40.57031,43.99805h34.57031V1752.473h-34.57031Z"/><path class="cls-2" d="M1973.02637,1607.33436v-37.1416h34.57031v37.1416h43.1416v30.85645h-43.1416v61.14062c0,16.28516,10.57129,23.71387,23.71387,23.71387a44.71962,44.71962,0,0,0,22.57129-6.85645l9.14257,25.1416c-13.14257,8.57129-27.14257,12.85645-40.85644,12.85645-27.999,0-49.1416-17.71289-49.1416-49.14063v-66.85546h-29.42774v-30.85645Z"/><path class="cls-2" d="M2140.16016,1633.04823c-12.57032,0-20.85645,5.42871-20.85645,14.85644,0,10.57129,10.28516,13.14258,29.999,16.85645,23.14258,4.57129,52.28418,10.28613,52.28418,41.71289,0,29.71387-25.71289,47.71289-59.14062,47.71289-24.28516,0-48.85547-9.71387-65.14063-27.42773l19.14161-23.999c12.28515,14.85645,33.1416,21.42774,49.1416,21.42774,12.57129,0,21.71386-4.57129,21.71386-13.71387,0-9.71387-9.14257-12.85645-26.85644-16.28516-23.42774-4.57129-55.1416-10.57129-55.1416-44.57031,0-30.85547,25.71386-45.71289,54.57031-45.71289,19.71387,0,39.999,6.85742,53.71191,20.57129l-17.999,22.57031C2165.874,1637.33338,2151.30273,1633.04823,2140.16016,1633.04823Z"/><path class="cls-2" d="M2265.00879,1552.47889v120.56836l63.42676-65.71289h47.1416l-63.14063,61.71289,61.14063,83.42578h-42.85547l-42.85645-59.42676-22.85644,22.57032V1752.473h-34.57031V1552.47889Z"/><path class="cls-2" d="M2551.57031,1723.0453a20.69708,20.69708,0,0,0,11.14258-3.14258l7.999,25.42773a50.51885,50.51885,0,0,1-27.999,8.85645c-17.42773,0-32.85547-9.999-35.71289-28.28418-10,18.28516-28.85645,28.28418-53.1416,28.28418-43.1416,0-68.56934-33.71289-68.56934-74.85449,0-40.85547,24.57129-75.42676,68.85547-75.42676,23.42774,0,40.57031,9.42871,48.57031,25.14258v-21.71387h33.71289v99.71191C2536.42773,1718.474,2543.57031,1723.0453,2551.57031,1723.0453Zm-91.14062.57129c24.57129,0,41.42773-17.999,41.42773-44.57032,0-26.28418-16.85644-44.56933-41.71289-44.56933-25.999,0-40.28515,19.999-40.28515,44.56933C2419.85938,1705.33143,2436.14551,1723.61659,2460.42969,1723.61659Z"/><path class="cls-2" d="M2646.417,1633.04823c-12.57031,0-20.85644,5.42871-20.85644,14.85644,0,10.57129,10.28613,13.14258,29.999,16.85645,23.14258,4.57129,52.28418,10.28613,52.28418,41.71289,0,29.71387-25.71289,47.71289-59.14063,47.71289-24.28515,0-48.85546-9.71387-65.14062-27.42773l19.1416-23.999c12.28516,14.85645,33.14258,21.42774,49.1416,21.42774,12.57129,0,21.71387-4.57129,21.71387-13.71387,0-9.71387-9.14258-12.85645-26.85645-16.28516-23.42773-4.57129-55.1416-10.57129-55.1416-44.57031,0-30.85547,25.71387-45.71289,54.57032-45.71289,19.71386,0,39.998,6.85742,53.71289,20.57129l-18,22.57031C2672.13086,1637.33338,2657.55957,1633.04823,2646.417,1633.04823Z"/><path class="cls-2" d="M2789.55078,1633.04823c-12.57031,0-20.85644,5.42871-20.85644,14.85644,0,10.57129,10.28515,13.14258,29.999,16.85645,23.14258,4.57129,52.28418,10.28613,52.28418,41.71289,0,29.71387-25.71289,47.71289-59.14063,47.71289-24.28515,0-48.85546-9.71387-65.14062-27.42773l19.1416-23.999c12.28516,14.85645,33.1416,21.42774,49.1416,21.42774,12.57129,0,21.71387-4.57129,21.71387-13.71387,0-9.71387-9.14258-12.85645-26.85645-16.28516-23.42773-4.57129-55.1416-10.57129-55.1416-44.57031,0-30.85547,25.71387-45.71289,54.57031-45.71289,19.71387,0,39.999,6.85742,53.71192,20.57129l-17.999,22.57031C2815.26465,1637.33338,2800.69336,1633.04823,2789.55078,1633.04823Z"/><path class="cls-2" d="M2906.11426,1690.76112c4,22.28418,18.57129,33.42676,41.1416,33.42676,17.999,0,30.85644-7.71387,39.71289-18.85645l18.28516,20.85645c-15.42774,18-35.14161,27.999-60.85547,27.999-44.56934,0-73.14063-29.999-73.14063-73.42578,0-42.85645,27.71387-76.85547,73.71192-76.85547,39.42773,0,64.28418,24.85644,64.28418,71.99805v14.85742Zm68.85547-25.42871c-.28614-20.28418-10.28614-32.57032-31.71387-32.57032-21.1416,0-33.999,12-37.42774,32.57032Z"/><path class="cls-2" d="M3077.24512,1731.61659c0,12.57129-9.71387,22.57031-23.71289,22.57031-13.71387,0-23.42774-9.999-23.42774-22.57031,0-12.85645,9.71387-22.85645,23.42774-22.85645C3067.53125,1708.76014,3077.24512,1718.76014,3077.24512,1731.61659Z"/></g></svg>